<?xml version="1.0" encoding="UTF-8" standalone="no"?>
<!-- Created with Inkscape (http://www.inkscape.org/) -->

<svg
   xmlns:dc="http://purl.org/dc/elements/1.1/"
   xmlns:cc="http://creativecommons.org/ns#"
   xmlns:rdf="http://www.w3.org/1999/02/22-rdf-syntax-ns#"
   xmlns:svg="http://www.w3.org/2000/svg"
   xmlns="http://www.w3.org/2000/svg"
   xmlns:sodipodi="http://sodipodi.sourceforge.net/DTD/sodipodi-0.dtd"
   xmlns:inkscape="http://www.inkscape.org/namespaces/inkscape"
   width="350mm"
   height="85mm"
   viewBox="0 0 1240.1575 301.18114"
   id="svg2"
   version="1.1"
   inkscape:version="0.91 r13725"
   sodipodi:docname="logoTeste.svg">
  <defs
     id="defs4" />
  <sodipodi:namedview
     id="base"
     pagecolor="#ffffff"
     bordercolor="#666666"
     borderopacity="1.0"
     inkscape:pageopacity="0.0"
     inkscape:pageshadow="2"
     inkscape:zoom="0.5"
     inkscape:cx="410.62338"
     inkscape:cy="312.31792"
     inkscape:document-units="px"
     inkscape:current-layer="layer1"
     showgrid="false"
     inkscape:window-width="1366"
     inkscape:window-height="706"
     inkscape:window-x="-8"
     inkscape:window-y="-8"
     inkscape:window-maximized="1"
     units="mm"
     width="320mm" />
  <metadata
     id="metadata7">
    <rdf:RDF>
      <cc:Work
         rdf:about="">
        <dc:format>image/svg+xml</dc:format>
        <dc:type
           rdf:resource="http://purl.org/dc/dcmitype/StillImage" />
        <dc:title></dc:title>
      </cc:Work>
    </rdf:RDF>
  </metadata>
  <g
     inkscape:label="Camada 1"
     inkscape:groupmode="layer"
     id="layer1"
     transform="translate(0,-751.18118)">
    <g
       id="g3374"
       transform="matrix(1.2257089,0,0,1.2257089,-24.658412,80.543945)">
      <g
         id="flowRoot3336"
         style="font-style:normal;font-weight:normal;font-size:64.8192215px;line-height:125%;font-family:sans-serif;letter-spacing:0px;word-spacing:0px;fill:#000000;fill-opacity:1;stroke:none;stroke-width:1px;stroke-linecap:butt;stroke-linejoin:miter;stroke-opacity:1">
        <path
           id="path3355"
           style="font-style:normal;font-variant:normal;font-weight:normal;font-stretch:normal;font-size:291.68649292px;font-family:'Colonna MT';-inkscape-font-specification:'Colonna MT'"
           d="m 173.20486,711.35938 -65.9428,0 0,-150.11599 q 9.68491,-0.28485 21.64861,-1.13941 11.10915,-0.5697 10.2546,-0.5697 l 0,2.56366 q -10.96673,2.8485 -15.52433,11.25157 -4.5576,8.68793 -4.5576,25.77894 l 0,61.95489 q 0,13.95766 1.42425,24.92439 1.28183,11.53642 2.99093,13.24552 1.56667,1.7091 8.26065,1.7091 l 29.90926,0 q 15.80918,0 26.20621,-4.98487 10.39703,-4.98488 18.2304,-19.65466 l 2.84851,0 q -0.99698,6.8364 -6.40913,21.64861 -3.56063,9.40005 -4.5576,15.09705 -11.53643,-1.7091 -24.78196,-1.7091 z m -106.249085,-151.8251 30.051685,1.70911 0,150.11599 -8.830353,0 q -8.118228,0 -21.221332,1.7091 l 0,-2.56365 q 10.539453,-4.13032 14.38493,-13.24553 3.845476,-9.25762 3.845476,-29.62441 l 0,-68.07917 q 0,-21.79103 -5.697002,-28.76986 -5.839427,-7.12125 -12.533404,-8.68792 l 0,-2.56366 z"
           inkscape:connector-curvature="0" />
        <path
           id="path3357"
           style="font-style:normal;font-variant:normal;font-weight:normal;font-stretch:normal;font-size:291.68649292px;font-family:'Colonna MT';-inkscape-font-specification:'Colonna MT'"
           d="m 359.49681,696.6896 q 15.52433,-21.0789 15.52433,-63.52157 0,-37.45778 -15.38191,-58.39427 29.33956,17.51829 29.33956,59.96095 0,41.87296 -29.48198,61.95489 z M 244.70222,574.63134 q -15.66676,24.21226 -15.66676,61.95489 0,34.18202 14.95463,59.24882 -28.76985,-18.94253 -28.76985,-60.67307 0,-42.86993 29.48198,-60.53064 z m 106.53393,61.10034 q 0,-68.22159 -49.56391,-68.22159 -48.56694,0 -48.56694,69.93069 0,65.80038 49.13664,65.80038 48.99421,0 48.99421,-67.50948 z m 13.38796,-0.14242 q 0,26.20621 -7.9758,44.29419 -7.83338,17.94555 -22.07589,26.49106 -13.95765,8.68792 -32.61533,8.68792 -29.62441,0 -45.86087,-21.22133 -16.23645,-21.22133 -16.23645,-58.39427 0,-38.59718 16.5213,-59.24881 16.52131,-20.36679 45.29117,-20.36679 29.19713,0 46.14571,20.36679 16.80616,20.22435 16.80616,59.39124 z"
           inkscape:connector-curvature="0" />
        <path
           id="path3359"
           style="font-style:normal;font-variant:normal;font-weight:normal;font-stretch:normal;font-size:291.68649292px;font-family:'Colonna MT';-inkscape-font-specification:'Colonna MT'"
           d="m 539.94937,701.53205 0,-68.64887 q 6.8364,-0.28485 12.5334,-0.85455 9.25763,-0.85455 12.10613,-0.85455 l 0,2.56365 q -12.96068,5.26973 -12.96068,27.91531 l 0,36.17596 q -0.99698,0.14243 -5.55458,1.7091 -2.2788,0.5697 -3.70305,1.1394 -1.42425,0.5697 -2.42122,0.85455 z M 436.12151,574.20406 q -17.37586,24.63954 -17.37586,62.38217 0,8.83036 1.99395,25.20924 1.99395,16.09403 12.24856,33.46988 -27.63046,-21.6486 -27.63046,-58.96397 0,-22.93043 9.25763,-38.59718 9.1152,-15.38191 21.50618,-23.50014 z m 93.2884,58.67912 0,72.06708 q -22.64558,9.25762 -39.02446,9.25762 -27.63046,0 -44.57904,-18.2304 -8.40308,-9.25763 -12.67583,-23.35771 -4.13032,-14.10008 -4.13032,-32.75776 0,-81.46713 68.22159,-81.46713 25.06681,0 48.56694,8.40308 0,13.24553 0.42728,20.36678 0.42727,6.12428 0.42727,14.95463 l -2.8485,0 q -3.4182,-15.3819 -16.09403,-24.21225 -12.96068,-8.83036 -30.90623,-8.83036 -55.40335,0 -55.40335,66.5125 0,67.50947 47.14269,67.50947 18.80011,0 26.63349,-8.97278 2.56365,-4.70002 2.56365,-17.37585 l 0,-19.22738 q 0,-20.65164 -15.09706,-23.78499 l 0,-2.56365 q 5.26973,0.28485 14.66978,0.85455 7.26368,0.5697 12.10613,0.85455 z"
           inkscape:connector-curvature="0" />
        <path
           id="path3361"
           style="font-style:normal;font-variant:normal;font-weight:normal;font-stretch:normal;font-size:291.68649292px;font-family:'Colonna MT';-inkscape-font-specification:'Colonna MT'"
           d="m 721.54129,696.6896 q 15.52433,-21.0789 15.52433,-63.52157 0,-37.45778 -15.38191,-58.39427 29.33956,17.51829 29.33956,59.96095 0,41.87296 -29.48198,61.95489 z M 606.7467,574.63134 q -15.66676,24.21226 -15.66676,61.95489 0,34.18202 14.95463,59.24882 -28.76986,-18.94253 -28.76986,-60.67307 0,-42.86993 29.48199,-60.53064 z m 106.53393,61.10034 q 0,-68.22159 -49.56391,-68.22159 -48.56694,0 -48.56694,69.93069 0,65.80038 49.13664,65.80038 48.99421,0 48.99421,-67.50948 z m 13.38796,-0.14242 q 0,26.20621 -7.97581,44.29419 -7.83337,17.94555 -22.07588,26.49106 -13.95765,8.68792 -32.61533,8.68792 -29.62441,0 -45.86087,-21.22133 -16.23645,-21.22133 -16.23645,-58.39427 0,-38.59718 16.5213,-59.24881 16.52131,-20.36679 45.29117,-20.36679 29.19713,0 46.14571,20.36679 16.80616,20.22435 16.80616,59.39124 z"
           inkscape:connector-curvature="0" />
      </g>
      <g
         id="flowRoot3354"
         style="font-style:normal;font-weight:normal;font-size:64.8192215px;line-height:125%;font-family:sans-serif;letter-spacing:0px;word-spacing:0px;fill:#000000;fill-opacity:1;stroke:none;stroke-width:1px;stroke-linecap:butt;stroke-linejoin:miter;stroke-opacity:1">
        <path
           id="path3364"
           style="font-style:normal;font-variant:normal;font-weight:normal;font-stretch:normal;font-size:97.22882843px;font-family:'Segoe Script';-inkscape-font-specification:'Segoe Script'"
           d="m 774.33966,706.90029 q 0,-3.9879 0.66465,-7.83338 0.71212,-3.84547 1.5192,-7.31115 0.85455,-3.51315 1.5192,-6.4566 0.71213,-2.94345 0.71213,-5.1273 0,-0.71213 -0.42728,-0.85455 -0.42728,-0.1899 -1.1394,-0.1899 -0.5697,0 -1.28183,0.14242 -0.66465,0.14243 -1.42425,0.28485 -0.71212,0.14243 -1.42425,0.28485 -0.66465,0.14243 -1.18687,0.14243 -1.61415,0 -2.8485,0 -1.23435,-0.0475 -2.0889,-0.3798 -0.85455,-0.33233 -1.28183,-1.1394 -0.42727,-0.80708 -0.42727,-2.37375 0,-0.66465 0.42727,-1.09193 0.47475,-0.47475 1.1394,-0.7596 0.71213,-0.28485 1.5192,-0.3798 0.85455,-0.14242 1.61415,-0.14242 0.5697,0 1.7091,-0.0949 1.18688,-0.14243 2.4687,-0.28485 1.3293,-0.1899 2.51618,-0.33233 1.18687,-0.14242 1.75658,-0.1899 0.7596,-0.0475 1.47172,-0.7596 0.71213,-0.7596 1.23435,-1.75657 0.52223,-0.99698 0.85455,-2.04143 0.3798,-1.04445 0.52223,-1.75658 0.23737,-1.28182 0.5697,-3.18082 0.3798,-1.94648 0.80707,-3.89295 0.42728,-1.99395 0.90203,-3.75053 0.52222,-1.80405 1.04445,-2.8485 0.5697,-1.1394 1.3293,-1.7091 0.7596,-0.61717 1.899,-0.61717 3.37072,0 3.37072,3.65557 0,2.18385 -0.99697,5.17478 -0.28485,0.9495 -0.66465,2.2788 -0.3798,1.3293 -0.71213,2.75355 -0.33232,1.37677 -0.5697,2.61113 -0.23737,1.23435 -0.23737,1.99395 0,1.66162 1.7091,1.66162 2.04142,0 3.56062,-0.0475 1.51921,-0.0475 2.99093,-0.1899 1.47173,-0.14243 3.18083,-0.42728 1.75657,-0.28485 4.27275,-0.80707 2.04142,-0.42728 3.08587,-0.66465 1.09193,-0.28485 1.899,-0.52223 0.80708,-0.23737 1.66163,-0.47475 0.90203,-0.28485 2.4687,-0.71212 0,0.095 0.28485,0.33232 0.33233,0.1899 0.66465,0.47475 0.3798,0.28485 0.66465,0.5697 0.28485,0.23738 0.28485,0.3798 0,0.80708 -0.33232,1.47173 -0.33233,0.61717 -0.85455,1.1394 -0.47475,0.52222 -1.09193,0.9495 -0.61717,0.3798 -1.23435,0.71212 -3.0384,1.3293 -6.74145,2.0889 -3.65558,0.7596 -7.2162,1.3293 -2.37375,0.3798 -4.27276,0.66465 -1.899,0.28485 -3.32325,0.61718 -1.37677,0.33232 -2.32627,0.7596 -0.9495,0.3798 -1.37678,1.04445 -0.23737,0.71212 -0.71212,2.4687 -0.42728,1.75657 -0.99698,3.94043 -0.52222,2.13637 -1.04445,4.41517 -0.52222,2.2788 -0.85455,4.08285 -0.1899,0.85455 -0.42727,2.42123 -0.1899,1.5192 -0.42728,3.18082 -0.1899,1.66163 -0.33232,3.13336 -0.0949,1.47172 -0.0949,2.18385 0.0949,4.1778 1.56667,5.98185 1.47173,1.80405 5.03235,1.80405 2.4687,-0.14243 4.65255,-0.52223 2.18386,-0.42727 4.46266,-1.37677 2.32627,-0.9495 4.98487,-2.51618 2.6586,-1.61415 6.12428,-4.08285 1.04445,-0.7596 1.99395,-1.56667 0.99697,-0.85455 1.85153,-1.5192 0.85455,-0.66466 1.61415,-1.09193 0.7596,-0.47475 1.42425,-0.47475 0.85455,0 1.04445,0.33232 0.23737,0.28485 0.23737,1.09193 0,0.61718 -0.47475,1.5192 -0.42727,0.90203 -1.23435,1.94648 -0.7596,1.04445 -1.899,2.18385 -1.09192,1.09192 -2.37375,2.0889 -2.80103,2.23132 -5.83943,4.22527 -2.99092,1.99395 -6.12427,3.51315 -3.08588,1.47173 -6.17176,2.37376 -3.08587,0.85455 -6.0768,0.85455 -3.4182,0 -5.83942,-1.09193 -2.42123,-1.09193 -3.94043,-2.89598 -1.5192,-1.85152 -2.23133,-4.1778 -0.71212,-2.32627 -0.71212,-4.84245 z"
           inkscape:connector-curvature="0" />
        <path
           id="path3366"
           style="font-style:normal;font-variant:normal;font-weight:normal;font-stretch:normal;font-size:97.22882843px;font-family:'Segoe Script';-inkscape-font-specification:'Segoe Script'"
           d="m 872.51799,687.57796 q 0,0.71213 -1.04445,2.51618 -2.4687,3.56062 -5.55458,7.12125 -3.0384,3.56062 -6.50408,6.78893 -3.4182,3.18082 -7.16872,5.98185 -3.70305,2.75355 -7.50105,4.79497 -3.79801,1.99395 -7.59601,3.08588 -3.75052,1.09193 -7.26367,1.04445 -7.59601,0 -11.82128,-4.41518 -4.1778,-4.41517 -4.1778,-13.34047 0,-7.45358 2.2788,-14.47988 2.32627,-7.02631 7.88085,-13.53038 1.04445,-1.1394 2.32628,-2.18385 1.3293,-1.04445 2.75355,-1.85153 1.47172,-0.80707 2.99092,-1.28182 1.56668,-0.47475 3.13335,-0.5697 0.3798,0 1.04445,0.095 0.66465,0.095 1.42425,0.33232 0.7596,0.23738 1.47173,0.61718 0.71212,0.33232 1.1394,0.85455 1.3293,1.5192 2.0889,3.13335 0.80708,1.61415 0.90203,3.56062 0.0949,2.18385 -0.52223,4.32023 -0.5697,2.0889 -1.99395,4.32023 -1.37678,2.18385 -3.65558,4.5576 -2.2788,2.32627 -5.5071,5.03235 -2.04142,1.7091 -4.5576,3.798 -2.4687,2.04142 -5.98185,4.32023 0,4.60507 2.75355,7.0263 2.80103,2.37375 7.64348,2.37375 2.70607,0 5.45962,-0.71213 2.75355,-0.71212 5.41215,-1.85152 2.65861,-1.18688 5.12731,-2.6586 2.51617,-1.5192 4.70002,-3.08588 4.03538,-2.94345 7.31115,-5.83943 3.27578,-2.94345 6.50408,-6.17175 l 2.56365,-2.56365 q 2.32628,-2.04142 3.37073,-2.04142 0.5697,0 0.5697,0.90202 z m -36.27091,-9.44753 q -0.0475,-0.71212 -0.23738,-1.37677 -0.14242,-0.71213 -0.47475,-1.23435 -0.33232,-0.52223 -0.7596,-0.80708 -0.42727,-0.33232 -0.99697,-0.33232 -2.51618,0.14242 -5.03235,3.08587 -2.51618,2.89598 -4.74751,7.69096 -0.52222,1.04445 -0.9495,2.37375 -0.3798,1.28182 -0.7596,2.6586 -0.33232,1.3293 -0.61717,2.6586 -0.23738,1.3293 -0.42728,2.37375 2.4687,-1.85153 4.5576,-3.4182 2.08891,-1.56668 3.89296,-3.2283 1.1394,-1.04445 2.32627,-2.23133 1.18688,-1.23435 2.13638,-2.56365 0.99697,-1.3293 1.56667,-2.75355 0.5697,-1.42425 0.52223,-2.89598 z"
           inkscape:connector-curvature="0" />
        <path
           id="path3368"
           style="font-style:normal;font-variant:normal;font-weight:normal;font-stretch:normal;font-size:97.22882843px;font-family:'Segoe Script';-inkscape-font-specification:'Segoe Script'"
           d="m 914.77075,686.01129 q 0,0.7596 -0.42728,1.7091 -0.42727,0.90202 -1.1394,1.899 -0.71212,0.99697 -1.61415,2.04142 -0.90202,0.99698 -1.80405,1.99395 -0.71213,0.80708 -1.5192,1.66163 -0.80708,0.80707 -1.85153,1.85152 -0.99697,0.99698 -2.37375,2.37375 -1.37677,1.32931 -3.2283,3.13336 -1.66162,1.61415 -3.70305,3.4182 -1.99395,1.75657 -4.08285,3.46567 -2.04143,1.7091 -3.9879,3.27578 -1.94648,1.56667 -3.37073,2.75355 -3.4182,2.80103 -6.50407,5.26973 -3.08588,2.51617 -6.07681,4.51012 -5.93437,3.9879 -9.40005,3.9879 -1.18687,0 -2.75355,-0.61717 -1.61415,-0.61718 -1.61415,-1.7091 0,-3.08588 2.32628,-4.84245 2.2788,-1.66163 7.12125,-3.6081 4.7475,-1.89901 7.12125,-3.70306 2.37375,-1.80405 2.37375,-4.9374 0,-1.56667 -3.27578,-6.36165 -1.61415,-2.42122 -2.89597,-4.41518 -1.23435,-2.04142 -2.13638,-3.65557 -1.80405,-3.32325 -1.80405,-6.97883 0,-3.18082 1.18688,-6.69398 0.5697,-1.99395 1.80405,-3.9879 1.28182,-2.04142 2.75355,-3.6081 1.47172,-1.61415 2.99093,-2.56365 1.5192,-0.9495 2.6586,-0.90202 4.1778,0 4.1778,4.9374 0,1.899 -1.37678,3.70305 -0.66465,0.85455 -1.61415,1.80405 -0.9495,0.90202 -2.18385,1.94647 -1.18687,0.99698 -2.04142,1.75658 -0.80708,0.7596 -1.32931,1.28183 0,2.4687 1.51921,5.79195 0.80707,1.61415 1.85152,3.51315 1.04445,1.899 2.42123,4.08285 1.37677,2.18385 2.32627,3.94043 0.9495,1.7091 1.42425,2.51617 0.0475,0.1899 0.52223,0.1899 0.66465,0 2.2788,-0.9495 1.66162,-0.99697 3.89295,-2.61112 2.2788,-1.66163 4.9374,-3.79801 2.6586,-2.18385 5.3172,-4.60507 2.75355,-2.4687 4.5576,-4.32023 1.80405,-1.85152 3.4182,-3.46567 1.61416,-1.61415 2.37376,-2.4687 0.80707,-0.90203 0.90202,-0.90203 0.3798,0 0.71213,0.28485 0.33232,0.28485 0.5697,0.7596 0.28485,0.42728 0.42727,0.9495 0.14243,0.47475 0.14243,0.90203 z"
           inkscape:connector-curvature="0" />
        <path
           id="path3370"
           style="font-style:normal;font-variant:normal;font-weight:normal;font-stretch:normal;font-size:97.22882843px;font-family:'Segoe Script';-inkscape-font-specification:'Segoe Script'"
           d="m 907.45959,706.90029 q 0,-3.9879 0.66465,-7.83338 0.71213,-3.84547 1.5192,-7.31115 0.85455,-3.51315 1.5192,-6.4566 0.71213,-2.94345 0.71213,-5.1273 0,-0.71213 -0.42728,-0.85455 -0.42727,-0.1899 -1.1394,-0.1899 -0.5697,0 -1.28182,0.14242 -0.66465,0.14243 -1.42425,0.28485 -0.71213,0.14243 -1.42425,0.28485 -0.66465,0.14243 -1.18688,0.14243 -1.61415,0 -2.8485,0 -1.23435,-0.0475 -2.0889,-0.3798 -0.85455,-0.33233 -1.28182,-1.1394 -0.42728,-0.80708 -0.42728,-2.37375 0,-0.66465 0.42728,-1.09193 0.47475,-0.47475 1.1394,-0.7596 0.71212,-0.28485 1.5192,-0.3798 0.85455,-0.14242 1.61415,-0.14242 0.5697,0 1.7091,-0.0949 1.18687,-0.14243 2.4687,-0.28485 1.3293,-0.1899 2.51617,-0.33233 1.18688,-0.14242 1.75658,-0.1899 0.7596,-0.0475 1.47172,-0.7596 0.71213,-0.7596 1.23436,-1.75657 0.52222,-0.99698 0.85455,-2.04143 0.3798,-1.04445 0.52222,-1.75658 0.23738,-1.28182 0.5697,-3.18082 0.3798,-1.94648 0.80708,-3.89295 0.42727,-1.99395 0.90202,-3.75053 0.52223,-1.80405 1.04445,-2.8485 0.5697,-1.1394 1.3293,-1.7091 0.7596,-0.61717 1.899,-0.61717 3.37073,0 3.37073,3.65557 0,2.18385 -0.99698,5.17478 -0.28485,0.9495 -0.66465,2.2788 -0.3798,1.3293 -0.71212,2.75355 -0.33233,1.37677 -0.5697,2.61113 -0.23738,1.23435 -0.23738,1.99395 0,1.66162 1.7091,1.66162 2.04143,0 3.56063,-0.0475 1.5192,-0.0475 2.99092,-0.1899 1.47173,-0.14243 3.18083,-0.42728 1.75658,-0.28485 4.27275,-0.80707 2.04143,-0.42728 3.08588,-0.66465 1.09192,-0.28485 1.899,-0.52223 0.80707,-0.23737 1.66162,-0.47475 0.90203,-0.28485 2.4687,-0.71212 0,0.095 0.28485,0.33232 0.33233,0.1899 0.66465,0.47475 0.37981,0.28485 0.66466,0.5697 0.28485,0.23738 0.28485,0.3798 0,0.80708 -0.33233,1.47173 -0.33232,0.61717 -0.85455,1.1394 -0.47475,0.52222 -1.09193,0.9495 -0.61717,0.3798 -1.23435,0.71212 -3.0384,1.3293 -6.74145,2.0889 -3.65557,0.7596 -7.2162,1.3293 -2.37375,0.3798 -4.27275,0.66465 -1.899,0.28485 -3.32325,0.61718 -1.37678,0.33232 -2.32628,0.7596 -0.9495,0.3798 -1.37677,1.04445 -0.23738,0.71212 -0.71213,2.4687 -0.42727,1.75657 -0.99697,3.94043 -0.52223,2.13637 -1.04445,4.41517 -0.52223,2.2788 -0.85455,4.08285 -0.1899,0.85455 -0.42728,2.42123 -0.1899,1.5192 -0.42727,3.18082 -0.1899,1.66163 -0.33233,3.13336 -0.095,1.47172 -0.095,2.18385 0.095,4.1778 1.56668,5.98185 1.47172,1.80405 5.03235,1.80405 2.4687,-0.14243 4.65255,-0.52223 2.18385,-0.42727 4.46265,-1.37677 2.32628,-0.9495 4.98488,-2.51618 2.6586,-1.61415 6.12427,-4.08285 1.04445,-0.7596 1.99395,-1.56667 0.99698,-0.85455 1.85153,-1.5192 0.85455,-0.66466 1.61415,-1.09193 0.7596,-0.47475 1.42425,-0.47475 0.85455,0 1.04445,0.33232 0.23738,0.28485 0.23738,1.09193 0,0.61718 -0.47475,1.5192 -0.42728,0.90203 -1.23435,1.94648 -0.75961,1.04445 -1.89901,2.18385 -1.09192,1.09192 -2.37375,2.0889 -2.80102,2.23132 -5.83942,4.22527 -2.99093,1.99395 -6.12428,3.51315 -3.08588,1.47173 -6.17175,2.37376 -3.08588,0.85455 -6.0768,0.85455 -3.4182,0 -5.83943,-1.09193 -2.42123,-1.09193 -3.94043,-2.89598 -1.5192,-1.85152 -2.23132,-4.1778 -0.71213,-2.32627 -0.71213,-4.84245 z"
           inkscape:connector-curvature="0" />
        <path
           id="path3372"
           style="font-style:normal;font-variant:normal;font-weight:normal;font-stretch:normal;font-size:97.22882843px;font-family:'Segoe Script';-inkscape-font-specification:'Segoe Script'"
           d="m 971.69329,676.46881 q 0,-0.52223 -0.28485,-0.9495 -0.28485,-0.42728 -0.71213,-0.71213 -0.3798,-0.28485 -0.85455,-0.42727 -0.42727,-0.1899 -0.7596,-0.1899 -2.0889,0 -4.27275,1.5192 -2.18385,1.47172 -4.08285,4.13032 -1.899,2.6586 -3.32325,6.31418 -1.42425,3.65558 -1.94648,7.92833 0.66465,-0.42728 1.75658,-1.23435 1.09192,-0.80708 2.32627,-1.75658 1.28183,-0.99697 2.51618,-1.99395 1.28183,-0.99697 2.2788,-1.85152 2.18385,-1.85153 3.6081,-3.27578 1.42425,-1.47173 2.23133,-2.6586 0.85455,-1.23435 1.18687,-2.37375 0.33233,-1.18688 0.33233,-2.4687 z m 22.0284,20.27183 q 0,1.66162 -1.23435,3.6081 -1.23435,1.94648 -3.51315,4.3677 -2.61112,2.75355 -5.74447,5.1273 -3.13335,2.32628 -6.45661,4.08285 -3.32325,1.7091 -6.74145,2.70608 -3.4182,0.99697 -6.59902,0.99697 -7.45358,0 -11.53643,-4.79497 -4.08285,-4.79498 -4.08285,-14.05261 0,-2.94345 0.52222,-5.98185 0.52223,-3.08587 1.5192,-6.0768 1.04445,-2.99092 2.56365,-5.79195 1.56668,-2.80103 3.6081,-5.22225 1.28183,-1.47173 2.8485,-2.99093 1.56668,-1.5192 3.46568,-2.70607 1.899,-1.23435 4.13033,-1.99395 2.2788,-0.7596 4.9374,-0.7596 1.899,0 3.4182,0.7596 1.5192,0.71212 2.56365,1.85152 1.04445,1.1394 1.56667,2.56365 0.56971,1.42425 0.56971,2.80103 0,2.89597 -1.56668,5.8869 -1.56668,2.94345 -4.41518,5.98185 -2.8485,2.99093 -6.8364,6.02933 -3.9879,2.99092 -8.87783,5.98185 -0.66465,0.3798 -1.3293,0.85455 -0.66465,0.42727 -0.66465,1.09193 0,1.42425 0.3798,2.99092 0.3798,1.56668 1.37678,2.89598 0.99697,1.28182 2.6586,2.13637 1.7091,0.85455 4.32023,0.85455 3.32325,0 6.74145,-1.04445 3.46567,-1.09192 6.74145,-2.99092 3.32325,-1.899 6.40913,-4.51013 3.13335,-2.61113 5.83942,-5.64953 1.5192,-1.66162 2.42123,-1.66162 0.52222,0 0.7596,0.61717 0.23737,0.61718 0.23737,2.04143 z"
           inkscape:connector-curvature="0" />
      </g>
      <rect
         y="747.44427"
         x="30.31024"
         height="4.6299443"
         width="990.80811"
         id="rect3362"
         style="opacity:1;fill:#c83737;fill-opacity:1;fill-rule:evenodd;stroke:#bf273f;stroke-width:1.62048054;stroke-opacity:1" />
      <rect
         style="opacity:1;fill:#c83737;fill-opacity:1;fill-rule:evenodd;stroke:#bf273f;stroke-width:3.10593629;stroke-opacity:1"
         id="rect3364"
         width="989.32263"
         height="17.034321"
         x="31.052971"
         y="770.87378" />
    </g>
  </g>
</svg>
